<svg width="29" height="29" viewBox="0 0 29 29" fill="none" xmlns="http://www.w3.org/2000/svg">
<circle cx="14.5" cy="9.66683" r="3.83333" stroke="#CF5C00" stroke-width="2" stroke-linecap="round"/>
<path d="M18.2684 9.5625C18.6165 8.95958 19.1898 8.51963 19.8623 8.33944C20.5348 8.15926 21.2513 8.25359 21.8542 8.60168C22.4571 8.94978 22.8971 9.52313 23.0772 10.1956C23.2574 10.8681 23.1631 11.5846 22.815 12.1875C22.4669 12.7904 21.8936 13.2304 21.2211 13.4106C20.5486 13.5907 19.8321 13.4964 19.2292 13.1483C18.6263 12.8002 18.1863 12.2269 18.0061 11.5544C17.8259 10.8819 17.9203 10.1654 18.2684 9.5625L18.2684 9.5625Z" stroke="#CF5C00" stroke-width="2"/>
<path d="M6.185 9.5625C6.53309 8.95958 7.10644 8.51963 7.77891 8.33944C8.45138 8.15926 9.16789 8.25359 9.77081 8.60168C10.3737 8.94978 10.8137 9.52313 10.9939 10.1956C11.1741 10.8681 11.0797 11.5846 10.7316 12.1875C10.3835 12.7904 9.81018 13.2304 9.13771 13.4106C8.46524 13.5907 7.74873 13.4964 7.14581 13.1483C6.54289 12.8002 6.10295 12.2269 5.92276 11.5544C5.74257 10.8819 5.8369 10.1654 6.185 9.5625L6.185 9.5625Z" stroke="#CF5C00" stroke-width="2"/>
<path d="M20.3986 21.7498L19.4183 21.9473L19.58 22.7498H20.3986V21.7498ZM25.1126 20.6498L26.0648 20.3444V20.3444L25.1126 20.6498ZM17.8602 17.7751L17.2553 16.9787L16.0988 17.8572L17.332 18.6242L17.8602 17.7751ZM24.2422 20.7498H20.3986V22.7498H24.2422V20.7498ZM24.1604 20.9552C24.155 20.9386 24.1503 20.9064 24.1581 20.8672C24.1655 20.8302 24.1811 20.8021 24.1959 20.7838C24.2246 20.7485 24.2486 20.7498 24.2422 20.7498V22.7498C25.4008 22.7498 26.491 21.6732 26.0648 20.3444L24.1604 20.9552ZM20.5417 17.9165C22.7716 17.9165 23.735 19.6291 24.1604 20.9552L26.0648 20.3444C25.5752 18.8179 24.1555 15.9165 20.5417 15.9165V17.9165ZM18.465 18.5714C18.9653 18.1914 19.6278 17.9165 20.5417 17.9165V15.9165C19.184 15.9165 18.0979 16.3388 17.2553 16.9787L18.465 18.5714ZM17.332 18.6242C18.6595 19.4498 19.2033 20.8794 19.4183 21.9473L21.379 21.5524C21.1201 20.2674 20.4051 18.1802 18.3883 16.9259L17.332 18.6242Z" fill="#CF5C00"/>
<path d="M11.1399 17.775L11.668 18.6242L12.9013 17.8572L11.7447 16.9787L11.1399 17.775ZM3.88746 20.6498L2.93524 20.3444H2.93524L3.88746 20.6498ZM8.60137 21.7498V22.7498H9.42005L9.58169 21.9473L8.60137 21.7498ZM8.45838 17.9165C9.37222 17.9165 10.0348 18.1914 10.535 18.5714L11.7447 16.9787C10.9022 16.3387 9.81608 15.9165 8.45838 15.9165V17.9165ZM4.83967 20.9552C5.26504 19.6291 6.2285 17.9165 8.45838 17.9165V15.9165C4.84456 15.9165 3.42486 18.8179 2.93524 20.3444L4.83967 20.9552ZM4.75781 20.7498C4.75139 20.7498 4.77541 20.7485 4.80412 20.7838C4.81897 20.8021 4.83455 20.8302 4.84194 20.8672C4.84977 20.9064 4.84501 20.9386 4.83967 20.9552L2.93524 20.3444C2.50902 21.6732 3.59926 22.7498 4.75781 22.7498V20.7498ZM8.60137 20.7498H4.75781V22.7498H8.60137V20.7498ZM9.58169 21.9473C9.79676 20.8794 10.3405 19.4498 11.668 18.6242L10.6117 16.9259C8.59496 18.1802 7.87986 20.2673 7.62105 21.5524L9.58169 21.9473Z" fill="#CF5C00"/>
<path d="M14.5 16.9165C18.9888 16.9165 20.1425 20.2515 20.4391 21.9659C20.5332 22.5101 20.0939 22.9582 19.5416 22.9582H9.45831C8.90603 22.9582 8.46677 22.5101 8.5609 21.9659C8.85745 20.2515 10.0112 16.9165 14.5 16.9165Z" stroke="#CF5C00" stroke-width="2" stroke-linecap="round"/>
</svg>
