<svg width="22" height="22" viewBox="0 0 22 22" fill="none" xmlns="http://www.w3.org/2000/svg">
<g clip-path="url(#clip0_134_1014)">
<path d="M10.9998 10.2866C9.82533 9.41761 8.06315 7.89697 3.01242 7.89697V18.7777C8.06315 18.7777 9.82533 20.2983 10.9998 21.1673V10.2866Z" stroke="#CF5C00" stroke-width="2" stroke-linecap="round" stroke-linejoin="round"/>
<path d="M11.0004 10.2866C12.1749 9.41761 13.9371 7.89697 18.9877 7.89697V18.7777C13.9371 18.7777 12.1749 20.2983 11.0004 21.1673V10.2866Z" stroke="#CF5C00" stroke-width="2" stroke-linecap="round" stroke-linejoin="round"/>
<path d="M16.9134 0.818848H6.42113C6.12801 0.818848 5.84072 0.900839 5.59175 1.05555L2.8298 2.77182L5.59175 4.48807C5.84072 4.64279 6.12801 4.72477 6.42113 4.72477H16.9134C17.9921 4.72477 18.8664 3.85042 18.8664 2.77182C18.8664 1.69322 17.9921 0.818848 16.9134 0.818848Z" stroke="#CF5C00" stroke-width="2" stroke-linecap="round" stroke-linejoin="round"/>
<path d="M14.1206 0.902832V4.7248" stroke="#CF5C00" stroke-width="2" stroke-linecap="round" stroke-linejoin="round"/>
</g>
<defs>
<clipPath id="clip0_134_1014">
<rect width="22" height="22" fill="white"/>
</clipPath>
</defs>
</svg>
