<svg width="17" height="17" viewBox="0 0 17 17" fill="none" xmlns="http://www.w3.org/2000/svg">
<g clip-path="url(#clip0_93_594)">
<path d="M16.0045 16.3932C15.4946 14.8034 14.4932 13.4167 13.1446 12.4329C11.7958 11.4491 10.1695 10.9189 8.50014 10.9189C6.83073 10.9189 5.20445 11.4491 3.85575 12.4329C2.50707 13.4167 1.50563 14.8034 0.99585 16.3932H16.0045Z" stroke="black" stroke-linecap="round" stroke-linejoin="round"/>
<path d="M8.50001 10.9287C11.3382 10.9287 13.639 8.62795 13.639 5.7898C13.639 2.95165 11.3382 0.650879 8.50001 0.650879C5.66186 0.650879 3.36108 2.95165 3.36108 5.7898C3.36108 8.62795 5.66186 10.9287 8.50001 10.9287Z" stroke="black" stroke-linecap="round" stroke-linejoin="round"/>
<path d="M10.1782 7.77832C10.1782 7.77832 9.75179 8.61732 8.50017 8.61732C7.24854 8.61732 6.82214 7.77832 6.82214 7.77832" stroke="black" stroke-linecap="round" stroke-linejoin="round"/>
<path d="M13.5459 4.81139C13.5344 4.81146 13.5229 4.8115 13.5115 4.8115C12.0178 4.8115 10.6767 4.15798 9.7585 3.12127C8.84035 4.158 7.49925 4.81153 6.0055 4.81153C5.13808 4.81153 4.32213 4.59115 3.6106 4.20333C4.27911 2.14159 6.21544 0.650879 8.49997 0.650879C11.0035 0.650879 13.089 2.44119 13.5459 4.81139Z" stroke="black" stroke-linecap="round" stroke-linejoin="round"/>
</g>
<defs>
<clipPath id="clip0_93_594">
<rect width="17" height="17" fill="white"/>
</clipPath>
</defs>
</svg>
