<svg width="17" height="17" viewBox="0 0 17 17" fill="none" xmlns="http://www.w3.org/2000/svg">
<g clip-path="url(#clip0_141_1367)">
<path d="M3.33932 11.2319C4.84824 11.2319 6.07146 10.0086 6.07146 8.49972C6.07146 6.9908 4.84824 5.76758 3.33932 5.76758C1.8304 5.76758 0.607178 6.9908 0.607178 8.49972C0.607178 10.0086 1.8304 11.2319 3.33932 11.2319Z" stroke="#CF5C00" stroke-linecap="round" stroke-linejoin="round"/>
<path d="M13.6607 16.3925C15.1696 16.3925 16.3929 15.1692 16.3929 13.6604C16.3929 12.1515 15.1696 10.9282 13.6607 10.9282C12.1519 10.9282 10.9286 12.1515 10.9286 13.6604C10.9286 15.1692 12.1519 16.3925 13.6607 16.3925Z" stroke="#CF5C00" stroke-linecap="round" stroke-linejoin="round"/>
<path d="M13.6607 6.07122C15.1696 6.07122 16.3929 4.848 16.3929 3.33908C16.3929 1.83016 15.1696 0.606934 13.6607 0.606934C12.1519 0.606934 10.9286 1.83016 10.9286 3.33908C10.9286 4.848 12.1519 6.07122 13.6607 6.07122Z" stroke="#CF5C00" stroke-linecap="round" stroke-linejoin="round"/>
<path d="M5.78003 7.28537L11.22 4.55322" stroke="#CF5C00" stroke-linecap="round" stroke-linejoin="round"/>
<path d="M5.78003 9.71387L11.22 12.446" stroke="#CF5C00" stroke-linecap="round" stroke-linejoin="round"/>
</g>
<defs>
<clipPath id="clip0_141_1367">
<rect width="17" height="17" fill="white"/>
</clipPath>
</defs>
</svg>
