<svg width="15" height="15" viewBox="0 0 15 15" fill="none" xmlns="http://www.w3.org/2000/svg">
<path fill-rule="evenodd" clip-rule="evenodd" d="M6.19377 10.9352L2.3169 7.05835C2.19902 6.9445 2.04114 6.88151 1.87727 6.88293C1.7134 6.88435 1.55664 6.95008 1.44076 7.06596C1.32488 7.18184 1.25915 7.3386 1.25773 7.50247C1.2563 7.66635 1.3193 7.82422 1.43315 7.9421L5.80814 12.3171C5.87065 12.3795 5.94568 12.428 6.02828 12.4593C6.11088 12.4906 6.19917 12.504 6.28734 12.4987C6.37552 12.4934 6.46156 12.4694 6.5398 12.4284C6.61804 12.3874 6.68671 12.3303 6.74126 12.2608L13.6163 3.51086C13.7128 3.38011 13.7546 3.21691 13.7328 3.05586C13.711 2.89481 13.6273 2.74857 13.4995 2.64818C13.3717 2.54778 13.2099 2.5011 13.0482 2.51806C12.8866 2.53501 12.7379 2.61425 12.6338 2.73898L6.19377 10.9352Z" fill="white"/>
</svg>
