<svg width="20" height="20" viewBox="0 0 20 20" fill="none" xmlns="http://www.w3.org/2000/svg">
<path fill-rule="evenodd" clip-rule="evenodd" d="M11.0083 16.3441L11.0775 16.4225C11.221 16.5659 11.4119 16.6521 11.6144 16.6649C11.8169 16.6776 12.0172 16.616 12.1775 16.4916L12.2558 16.4225L18.0892 10.5891L18.1242 10.5525L18.17 10.4958L18.2292 10.4041L18.2742 10.3091L18.3033 10.2216L18.3283 10.0983L18.3333 9.99995L18.3308 9.93745L18.3167 9.83245L18.2917 9.73995L18.255 9.64745L18.2117 9.56579L18.15 9.47912L18.0892 9.41079L12.2558 3.57745C12.1059 3.428 11.9046 3.34122 11.693 3.33476C11.4814 3.3283 11.2752 3.40263 11.1164 3.54266C10.9576 3.68269 10.8581 3.87791 10.838 4.08868C10.8179 4.29945 10.8788 4.50996 11.0083 4.67745L11.0775 4.75579L15.4867 9.16662L2.49999 9.16662C2.27898 9.16662 2.06702 9.25442 1.91074 9.4107C1.75446 9.56698 1.66666 9.77894 1.66666 9.99995C1.66666 10.221 1.75446 10.4329 1.91074 10.5892C2.06702 10.7455 2.27898 10.8333 2.49999 10.8333L15.4883 10.8333L11.0775 15.2441C10.934 15.3876 10.8478 15.5785 10.8351 15.7811C10.8224 15.9836 10.884 16.1838 11.0083 16.3441L11.0775 16.4225L11.0083 16.3441Z" fill="#050505"/>
</svg>
