<svg width="35" height="35" viewBox="0 0 35 35" fill="none" xmlns="http://www.w3.org/2000/svg">
<g clip-path="url(#clip0_0_22)">
<path d="M28.75 12.5C28.75 20 17.5 28.75 17.5 28.75C17.5 28.75 6.25 20 6.25 12.5C6.25 6.3725 11.3725 1.25 17.5 1.25C23.6275 1.25 28.75 6.3725 28.75 12.5Z" stroke="white" stroke-width="2" stroke-linecap="round" stroke-linejoin="round"/>
<path d="M17.5 16.25C19.5711 16.25 21.25 14.5711 21.25 12.5C21.25 10.4289 19.5711 8.75 17.5 8.75C15.4289 8.75 13.75 10.4289 13.75 12.5C13.75 14.5711 15.4289 16.25 17.5 16.25Z" stroke="white" stroke-width="2" stroke-linecap="round" stroke-linejoin="round"/>
<path d="M27.6933 25H30L33.75 33.75H1.25L5 25H7.30675" stroke="white" stroke-width="2" stroke-linecap="round" stroke-linejoin="round"/>
</g>
<defs>
<clipPath id="clip0_0_22">
<rect width="35" height="35" fill="white"/>
</clipPath>
</defs>
</svg>
