<svg width="81" height="61" viewBox="0 0 81 61" fill="none" xmlns="http://www.w3.org/2000/svg">
<path fill-rule="evenodd" clip-rule="evenodd" d="M45.4922 3.86141C51.875 5.30645 57.409 8.05368 62.6265 11.5293C67.6776 14.894 72.1233 18.6638 75.0468 23.5489C78.4471 29.2309 82.1966 35.3746 80.6352 41.622C79.0139 48.1096 73.2166 53.344 66.7089 56.9114C60.4526 60.341 52.8905 61.3724 45.4922 60.8868C38.5126 60.4287 32.9485 56.6254 26.5056 54.2725C17.5295 50.9945 3.20929 52.431 0.371958 44.4092C-2.48522 36.3312 11.9399 31.289 15.6058 23.4561C18.8532 16.5177 13.3334 6.47068 20.2506 1.93546C27.1359 -2.57877 37.1189 1.9657 45.4922 3.86141Z" fill="#E0C7B7"/>
</svg>
