<svg width="48" height="62" viewBox="0 0 48 62" fill="none" xmlns="http://www.w3.org/2000/svg">
<path fill-rule="evenodd" clip-rule="evenodd" d="M22.0933 0.221003C28.5672 0.584105 35.5925 1.76083 39.9911 6.51761C44.1548 11.0204 42.6598 18.0201 44.068 23.9852C45.3158 29.2705 48.9546 34.1441 47.764 39.4426C46.5274 44.9459 41.9493 48.8373 37.659 52.5061C33.0053 56.4857 28.1569 60.5159 22.0933 61.3949C15.4594 62.3564 6.97535 62.8315 2.85682 57.5507C-1.41678 52.071 3.67052 44.161 3.2462 37.2288C2.96976 32.7127 0.895228 28.7354 0.816098 24.2115C0.697335 17.4218 -1.83648 9.50838 2.67239 4.42452C7.17403 -0.651173 15.3138 -0.159237 22.0933 0.221003Z" fill="#E5E2E2" fill-opacity="0.69"/>
</svg>
