<svg width="6" height="17" viewBox="0 0 6 17" fill="none" xmlns="http://www.w3.org/2000/svg">
<path d="M3.00003 3.14202C3.72961 3.14202 4.32105 2.55058 4.32105 1.821C4.32105 1.09142 3.72961 0.49998 3.00003 0.49998C2.27045 0.49998 1.67901 1.09142 1.67901 1.821C1.67901 2.55058 2.27045 3.14202 3.00003 3.14202Z" stroke="#061428" stroke-miterlimit="10"/>
<path d="M4.44745 15.5167L4.57334 10.3467C5.05835 10.172 5.54741 9.76592 5.4962 9.25637L5.19043 5.32212C5.13922 4.81193 4.67747 4.39435 4.16472 4.39435H1.83549C1.32275 4.39435 0.860998 4.81193 0.809787 5.32212L0.503804 9.25637C0.452593 9.76656 0.941441 10.172 1.42709 10.3467L1.55234 15.5167" stroke="#061428" stroke-miterlimit="10" stroke-linecap="round" stroke-linejoin="round"/>
</svg>
