<svg width="69" height="56" viewBox="0 0 69 56" fill="none" xmlns="http://www.w3.org/2000/svg">
<path fill-rule="evenodd" clip-rule="evenodd" d="M34.6619 3.22083C40.2362 4.04081 45.5654 4.8356 50.7664 6.67576C56.895 8.84412 64.4978 10.0532 67.6399 14.8888C70.7926 19.7406 67.6146 25.5956 66.5921 31.0309C65.5811 36.4051 66.6888 42.9313 61.6931 46.4997C56.66 50.0948 48.6036 46.8167 42.2303 48.4323C35.716 50.0836 31.1738 56.6234 24.4056 55.9518C17.6958 55.286 13.7495 49.487 9.48079 45.1829C5.32948 40.9971 -0.250206 36.7472 0.00869098 31.3525C0.265919 25.9925 8.38363 23.2904 10.771 18.2976C13.3802 12.841 8.70883 4.89322 14.3684 1.32162C19.879 -2.15589 27.8217 2.21464 34.6619 3.22083Z" fill="#4B4848"/>
</svg>
