<svg width="18" height="18" viewBox="0 0 18 18" fill="none" xmlns="http://www.w3.org/2000/svg">
<path d="M6.71086 16.8017C5.90799 17.3196 4.95126 17.5453 4.00154 17.441C3.05183 17.3364 2.16703 16.9082 1.49596 16.2281L0.909282 15.6544C0.652077 15.3913 0.508064 15.038 0.508064 14.6701C0.508064 14.3022 0.652077 13.9488 0.909282 13.6858L3.3994 11.2217C3.66028 10.9654 4.01142 10.8217 4.3772 10.8217C4.74296 10.8217 5.09411 10.9654 5.35498 11.2217C5.61806 11.479 5.97138 11.623 6.3393 11.623C6.70723 11.623 7.06053 11.479 7.32361 11.2217L11.2348 7.31057C11.3653 7.18199 11.4689 7.02876 11.5396 6.85978C11.6103 6.6908 11.6467 6.50944 11.6467 6.32626C11.6467 6.14307 11.6103 5.96173 11.5396 5.79274C11.4689 5.62376 11.3653 5.47053 11.2348 5.34195C10.9784 5.08107 10.8347 4.72993 10.8347 4.36416C10.8347 3.99838 10.9784 3.64724 11.2348 3.38636L13.7118 0.909282C13.975 0.652076 14.3282 0.508064 14.6961 0.508064C15.0641 0.508064 15.4174 0.652076 15.6805 0.909282L16.2542 1.49596C16.9342 2.16703 17.3625 3.05183 17.467 4.00154C17.5715 4.95126 17.3457 5.90799 16.8277 6.71086C14.129 10.6882 10.6951 14.1132 6.71086 16.8017Z" stroke="#2B18A2" stroke-linecap="round" stroke-linejoin="round"/>
</svg>
