<svg width="18" height="18" viewBox="0 0 18 18" fill="none" xmlns="http://www.w3.org/2000/svg">
<path fill-rule="evenodd" clip-rule="evenodd" d="M8.0925 3.29015L8.03025 3.21965C7.90111 3.09051 7.72928 3.01294 7.54701 3.00148C7.36474 2.99002 7.18455 3.04546 7.04025 3.1574L6.96975 3.21965L1.71975 8.46965L1.68825 8.50265L1.647 8.55365L1.59375 8.63615L1.55325 8.72165L1.527 8.8004L1.5045 8.9114L1.5 8.9999L1.50225 9.05615L1.515 9.15065L1.5375 9.2339L1.5705 9.31715L1.6095 9.39065L1.665 9.46865L1.71975 9.53015L6.96975 14.7801C7.10472 14.9147 7.28583 14.9928 7.47629 14.9986C7.66675 15.0044 7.85229 14.9375 7.99521 14.8115C8.13813 14.6854 8.22773 14.5097 8.2458 14.32C8.26387 14.1303 8.20906 13.9409 8.0925 13.7901L8.03025 13.7196L4.062 9.7499L15.75 9.7499C15.9489 9.7499 16.1397 9.67088 16.2803 9.53023C16.421 9.38957 16.5 9.19881 16.5 8.9999C16.5 8.80098 16.421 8.61022 16.2803 8.46957C16.1397 8.32891 15.9489 8.2499 15.75 8.2499L4.0605 8.2499L8.03025 4.28015C8.15938 4.151 8.23696 3.97918 8.24842 3.79691C8.25988 3.61464 8.20444 3.43445 8.0925 3.29015L8.03025 3.21965L8.0925 3.29015Z" fill="#050505"/>
</svg>
