<svg width="15" height="34" viewBox="0 0 15 34" fill="none" xmlns="http://www.w3.org/2000/svg">
<path d="M7.26203 6.8146C9.00624 6.8146 10.4202 5.57666 10.4202 4.04959C10.4202 2.52251 9.00624 1.28457 7.26203 1.28457C5.51782 1.28457 4.10385 2.52251 4.10385 4.04959C4.10385 5.57666 5.51782 6.8146 7.26203 6.8146Z" stroke="#061428" stroke-width="2.5" stroke-miterlimit="10"/>
<path d="M10.722 32.7156L11.023 21.8944C12.1825 21.5287 13.3517 20.6788 13.2293 19.6122L12.4983 11.3775C12.3758 10.3096 11.2719 9.43558 10.0461 9.43558H4.4776C3.25178 9.43558 2.14787 10.3096 2.02544 11.3775L1.29392 19.6122C1.17149 20.6801 2.34019 21.5287 3.50123 21.8944L3.80067 32.7156" stroke="#061428" stroke-width="2.5" stroke-miterlimit="10" stroke-linecap="round" stroke-linejoin="round"/>
</svg>
