<svg width="18" height="18" viewBox="0 0 18 18" fill="none" xmlns="http://www.w3.org/2000/svg">
<g clip-path="url(#clip0_87_568)">
<path d="M12.5282 0.819336C12.1974 0.819336 11.9293 1.08749 11.9293 1.41827V3.10281H10.2448C9.91399 3.10281 9.64584 3.37096 9.64584 3.70175V5.64828C9.64584 5.97907 9.91399 6.24722 10.2448 6.24722H11.9293V7.9317C11.9293 8.26248 12.1974 8.53064 12.5282 8.53064H14.4747C14.8055 8.53064 15.0737 8.26248 15.0737 7.9317V6.24722H16.7583C17.0889 6.24722 17.3571 5.97907 17.3571 5.64828V3.70175C17.3571 3.37096 17.0889 3.10281 16.7583 3.10281H15.0737V1.41827C15.0737 1.08749 14.8055 0.819336 14.4747 0.819336H12.5282Z" stroke="white" stroke-linecap="round" stroke-linejoin="round"/>
<path d="M9.58566 16.6288C10.2507 17.0571 11.0423 17.2448 11.8289 17.1608C12.6154 17.0768 13.3494 16.7261 13.9091 16.167L14.3967 15.6796C14.6128 15.461 14.7342 15.1659 14.7342 14.8584C14.7342 14.551 14.6128 14.2559 14.3967 14.0373L12.3439 11.9975C12.1275 11.7821 11.8346 11.6611 11.5293 11.6611C11.2239 11.6611 10.931 11.7821 10.7146 11.9975C10.4961 12.2138 10.201 12.3351 9.89357 12.3351C9.58611 12.3351 9.29107 12.2138 9.0725 11.9975L5.80105 8.7261C5.58482 8.50753 5.46354 8.21248 5.46354 7.90503C5.46354 7.59757 5.58482 7.30253 5.80105 7.08396C6.0165 6.86757 6.13744 6.57465 6.13744 6.2693C6.13744 5.96394 6.0165 5.67103 5.80105 5.45465L3.82536 3.40198C3.60678 3.18575 3.31174 3.06445 3.00429 3.06445C2.69683 3.06445 2.40179 3.18575 2.18322 3.40198L1.69571 3.88948C1.12661 4.44118 0.763939 5.17138 0.668213 5.9582C0.572487 6.74502 0.7495 7.54086 1.16971 8.21293C3.40678 11.5341 6.26446 14.3918 9.58566 16.6288Z" stroke="white" stroke-linecap="round" stroke-linejoin="round"/>
</g>
<defs>
<clipPath id="clip0_87_568">
<rect width="18" height="18" fill="white"/>
</clipPath>
</defs>
</svg>
