<svg width="30" height="30" viewBox="0 0 30 30" fill="none" xmlns="http://www.w3.org/2000/svg">
<path fill-rule="evenodd" clip-rule="evenodd" d="M16.5125 24.5164L16.6162 24.6339C16.8315 24.8491 17.1179 24.9784 17.4216 24.9975C17.7254 25.0166 18.0257 24.9242 18.2662 24.7377L18.3837 24.6339L27.1337 15.8839L27.1863 15.8289L27.255 15.7439L27.3437 15.6064L27.4112 15.4639L27.455 15.3327L27.4925 15.1477L27.5 15.0002L27.4962 14.9064L27.475 14.7489L27.4375 14.6102L27.3825 14.4714L27.3175 14.3489L27.225 14.2189L27.1337 14.1164L18.3837 5.36642C18.1588 5.14224 17.857 5.01208 17.5395 5.00239C17.2221 4.99269 16.9129 5.10419 16.6747 5.31423C16.4364 5.52428 16.2871 5.81711 16.257 6.13327C16.2269 6.44942 16.3182 6.76518 16.5125 7.01642L16.6162 7.13392L23.23 13.7502L3.75 13.7502C3.41848 13.7502 3.10053 13.8819 2.86611 14.1163C2.63169 14.3507 2.5 14.6687 2.5 15.0002C2.5 15.3317 2.63169 15.6496 2.86611 15.8841C3.10053 16.1185 3.41848 16.2502 3.75 16.2502L23.2325 16.2502L16.6162 22.8664C16.401 23.0817 16.2717 23.368 16.2526 23.6718C16.2335 23.9756 16.3259 24.2759 16.5125 24.5164L16.6162 24.6339L16.5125 24.5164Z" fill="white"/>
</svg>
