<svg width="68" height="52" viewBox="0 0 68 52" fill="none" xmlns="http://www.w3.org/2000/svg">
<path fill-rule="evenodd" clip-rule="evenodd" d="M30.1687 1.89875e-06C35.4247 0.00296299 38.8102 4.53509 43.7173 6.07679C50.4262 8.18459 59.3494 6.23065 64.0846 10.6557C68.7775 15.0412 68.6613 22.0199 66.8001 27.6476C65.02 33.0303 59.3384 36.7126 54.2433 40.4138C49.7178 43.7012 44.5901 46.0384 38.9669 47.8663C32.8229 49.8634 26.3238 53.2507 20.0579 51.5258C13.799 49.8029 11.3766 43.7624 7.71554 39.2635C4.5142 35.3297 0.194775 31.6106 0.00629353 26.8861C-0.176681 22.2998 3.66695 18.4158 6.7305 14.573C9.39718 11.2281 12.7225 8.4774 16.6081 6.06152C20.7942 3.45874 24.9121 -0.00295949 30.1687 1.89875e-06Z" fill="#2B2A2A"/>
</svg>
