<svg width="34" height="34" viewBox="0 0 34 34" fill="none" xmlns="http://www.w3.org/2000/svg">
<g clip-path="url(#clip0_47_621)">
<path d="M12.1426 17.6074C11.8073 17.6074 11.5354 17.3355 11.5354 17.0002C11.5354 16.6649 11.8073 16.3931 12.1426 16.3931" stroke="white" stroke-linecap="round" stroke-linejoin="round"/>
<path d="M12.1426 17.6074C12.4779 17.6074 12.7497 17.3355 12.7497 17.0002C12.7497 16.6649 12.4779 16.3931 12.1426 16.3931" stroke="white" stroke-linecap="round" stroke-linejoin="round"/>
<path d="M21.8574 17.6074C21.5221 17.6074 21.2503 17.3355 21.2503 17.0002C21.2503 16.6649 21.5221 16.3931 21.8574 16.3931" stroke="white" stroke-linecap="round" stroke-linejoin="round"/>
<path d="M21.8575 17.6074C22.1928 17.6074 22.4646 17.3355 22.4646 17.0002C22.4646 16.6649 22.1928 16.3931 21.8575 16.3931" stroke="white" stroke-linecap="round" stroke-linejoin="round"/>
<path d="M10.9286 32.0796C12.0536 32.5349 13.2832 32.7858 14.5714 32.7858H19.4286C20.7168 32.7858 21.9465 32.5349 23.0714 32.0796" stroke="white" stroke-linecap="round" stroke-linejoin="round"/>
<path d="M4.85715 18.2144V1.21436L14.943 8.63687" stroke="white" stroke-linecap="round" stroke-linejoin="round"/>
<path d="M29.1426 18.2144V1.21436L19.0897 8.63687" stroke="white" stroke-linecap="round" stroke-linejoin="round"/>
<path d="M9.75934 10.9286C11.5381 9.43804 14.123 8.5 17.0001 8.5C19.8771 8.5 22.4621 9.43804 24.2408 10.9286" stroke="white" stroke-linecap="round" stroke-linejoin="round"/>
<path d="M1.21429 23.0713H9.71429" stroke="white" stroke-linecap="round" stroke-linejoin="round"/>
<path d="M9.7143 27.9287L2.42859 31.5716" stroke="white" stroke-linecap="round" stroke-linejoin="round"/>
<path d="M24.2857 23.0713H32.7857" stroke="white" stroke-linecap="round" stroke-linejoin="round"/>
<path d="M24.2857 27.9287L31.5715 31.5716" stroke="white" stroke-linecap="round" stroke-linejoin="round"/>
<path d="M18.8214 23.0713H15.1786L17 24.2856L18.8214 23.0713Z" stroke="white" stroke-linecap="round" stroke-linejoin="round"/>
</g>
<defs>
<clipPath id="clip0_47_621">
<rect width="34" height="34" fill="white"/>
</clipPath>
</defs>
</svg>
