<svg width="33" height="73" viewBox="0 0 33 73" fill="none" xmlns="http://www.w3.org/2000/svg">
<path d="M16.3971 13.6554C19.8221 13.6554 22.5987 10.8788 22.5987 7.45376C22.5987 4.0287 19.8221 1.25214 16.3971 1.25214C12.972 1.25214 10.1954 4.0287 10.1954 7.45376C10.1954 10.8788 12.972 13.6554 16.3971 13.6554Z" stroke="#061428" stroke-width="2.5" stroke-miterlimit="10"/>
<path d="M21.4938 71.7479L22.7339 51.0915H31.54C25.9124 37.4452 24.8005 22.753 24.8005 22.753C24.1323 20.6664 22.6558 19.5315 20.2487 19.5315H12.5435C10.1364 19.5315 8.65983 20.6664 7.99169 22.753C7.99169 22.753 6.88078 37.4452 1.25214 51.0915H10.0582L11.2993 71.7479" stroke="#061428" stroke-width="2.5" stroke-miterlimit="10" stroke-linecap="round" stroke-linejoin="round"/>
</svg>
