<svg width="26" height="73" viewBox="0 0 26 73" fill="none" xmlns="http://www.w3.org/2000/svg">
<path d="M12.9889 13.6554C16.4139 13.6554 19.1905 10.8788 19.1905 7.45376C19.1905 4.0287 16.4139 1.25214 12.9889 1.25214C9.56382 1.25214 6.78726 4.0287 6.78726 7.45376C6.78726 10.8788 9.56382 13.6554 12.9889 13.6554Z" stroke="#061428" stroke-width="2.5" stroke-miterlimit="10"/>
<path d="M19.7835 71.7479L20.3745 47.4773C22.6514 46.6569 24.9473 44.7506 24.7069 42.3585L23.2714 23.8889C23.031 21.4938 20.8633 19.5334 18.4562 19.5334H7.52147C5.11435 19.5334 2.94664 21.4938 2.70623 23.8889L1.26977 42.3585C1.02936 44.7536 3.32428 46.6569 5.60419 47.4773L6.1922 71.7479" stroke="#061428" stroke-width="2.5" stroke-miterlimit="10" stroke-linecap="round" stroke-linejoin="round"/>
</svg>
