<svg width="14" height="12" viewBox="0 0 14 12" fill="none" xmlns="http://www.w3.org/2000/svg">
<path d="M3.93245 8.42072C3.21179 8.98677 2.38463 9.40208 1.50018 9.64188C1.40276 9.6773 1.31859 9.74179 1.25911 9.82657C1.19963 9.91145 1.16771 10.0126 1.16771 10.1162C1.16771 10.2199 1.19963 10.321 1.25911 10.4059C1.31859 10.4907 1.40276 10.5552 1.50018 10.5906C8.48412 13.4568 12.9248 9.02624 12.2486 4.11126L13.3789 1.76983H12.0669C10.4319 -0.238558 6.09222 -0.137634 6.80878 4.14154C6.80878 4.14154 4.48753 4.55533 1.52036 1.63863C1.45172 1.57087 1.3651 1.52419 1.27076 1.50414C1.17641 1.48408 1.07831 1.49148 0.988039 1.52546C0.897772 1.55944 0.819135 1.61858 0.761441 1.69588C0.703748 1.77317 0.669414 1.86538 0.662506 1.96158C0.348766 3.25124 0.505775 4.61054 1.10526 5.79471C1.70475 6.97888 2.70732 7.91011 3.93245 8.42072Z" stroke="#CF5C00" stroke-linecap="round" stroke-linejoin="round"/>
</svg>
