<svg width="34" height="34" viewBox="0 0 34 34" fill="none" xmlns="http://www.w3.org/2000/svg">
<path d="M2.2009 25.9366C2.2009 27.2779 3.28822 28.3652 4.62947 28.3652H29.3707C30.7117 28.3652 31.7992 27.2779 31.7992 25.9366V21.4688C29.8314 20.9354 28.3839 19.1368 28.3839 17.0002C28.3839 14.8636 29.8314 13.0651 31.7992 12.5316V8.06383C31.7992 6.72257 30.7117 5.63525 29.3707 5.63525H4.62947C3.28822 5.63525 2.2009 6.72257 2.2009 8.06383V12.5215C4.18798 13.042 5.65401 14.8499 5.65401 17.0002C5.65401 19.1505 4.18798 20.9584 2.2009 21.4789V25.9366Z" stroke="white" stroke-linecap="round" stroke-linejoin="round"/>
<path d="M22.1228 5.6543V9.63868" stroke="white" stroke-linecap="round" stroke-linejoin="round"/>
<path d="M22.1228 15.0078V18.9922" stroke="white" stroke-linecap="round" stroke-linejoin="round"/>
<path d="M22.1228 24.3809V28.3652" stroke="white" stroke-linecap="round" stroke-linejoin="round"/>
</svg>
