<svg width="57" height="59" viewBox="0 0 57 59" fill="none" xmlns="http://www.w3.org/2000/svg">
<path fill-rule="evenodd" clip-rule="evenodd" d="M34.0697 3.17799C39.6632 2.65183 45.9137 -2.20288 50.3932 1.20258C54.8941 4.62435 51.8071 12.047 53.0195 17.5843C54.0587 22.3307 57.3449 26.3968 56.9704 31.242C56.5281 36.9649 54.4058 42.4202 50.7583 46.8392C46.2636 52.2846 41.1031 59.3461 34.0697 58.9868C27.0033 58.6258 24.2034 49.4954 18.5705 45.1948C13.1291 41.0403 4.72682 40.4963 1.75423 34.3145C-1.29445 27.9744 -0.143169 19.8174 3.46481 13.7808C6.80634 8.18993 13.6886 6.20418 19.8261 4.0779C24.4361 2.48079 29.2143 3.63471 34.0697 3.17799Z" fill="#EFE9E9"/>
</svg>
