<svg width="34" height="34" viewBox="0 0 34 34" fill="none" xmlns="http://www.w3.org/2000/svg">
<path d="M32.0088 32.7854C30.9891 29.6059 28.9862 26.8324 26.2891 24.8648C23.5915 22.8972 20.339 21.8369 17.0002 21.8369C13.6614 21.8369 10.4088 22.8972 7.71141 24.8648C5.01404 26.8324 3.01118 29.6059 1.99161 32.7854H32.0088Z" stroke="white" stroke-linecap="round" stroke-linejoin="round"/>
<path d="M17 21.857C22.6763 21.857 27.278 17.2554 27.278 11.5791C27.278 5.90281 22.6763 1.30127 17 1.30127C11.3237 1.30127 6.72217 5.90281 6.72217 11.5791C6.72217 17.2554 11.3237 21.857 17 21.857Z" stroke="white" stroke-linecap="round" stroke-linejoin="round"/>
<path d="M20.3562 15.5557C20.3562 15.5557 19.5034 17.2337 17.0001 17.2337C14.4969 17.2337 13.6441 15.5557 13.6441 15.5557" stroke="white" stroke-linecap="round" stroke-linejoin="round"/>
<path d="M27.0917 9.62229C27.0686 9.62243 27.0458 9.6225 27.023 9.6225C24.0354 9.6225 21.3532 8.31547 19.5169 6.24205C17.6806 8.31552 14.9984 9.62258 12.0109 9.62258C10.2761 9.62258 8.64417 9.18182 7.2211 8.40618C8.55813 4.28268 12.4308 1.30127 16.9998 1.30127C22.007 1.30127 26.1778 4.88188 27.0917 9.62229Z" stroke="white" stroke-linecap="round" stroke-linejoin="round"/>
</svg>
