<svg width="21" height="21" viewBox="0 0 21 21" fill="none" xmlns="http://www.w3.org/2000/svg">
<path d="M14.25 2.25H16.5C16.8978 2.25 17.2794 2.40804 17.5606 2.68933C17.8419 2.97064 18 3.35217 18 3.75V18.75C18 19.1478 17.8419 19.5294 17.5606 19.8106C17.2794 20.0919 16.8978 20.25 16.5 20.25H4.5C4.10217 20.25 3.72065 20.0919 3.43934 19.8106C3.15804 19.5294 3 19.1478 3 18.75V3.75C3 3.35217 3.15804 2.97064 3.43934 2.68933C3.72065 2.40804 4.10217 2.25 4.5 2.25H6.75" stroke="#CF5C00" stroke-linecap="round" stroke-linejoin="round"/>
<path d="M12.75 0.75H8.25C7.42158 0.75 6.75 1.42157 6.75 2.25V3C6.75 3.82842 7.42158 4.5 8.25 4.5H12.75C13.5784 4.5 14.25 3.82842 14.25 3V2.25C14.25 1.42157 13.5784 0.75 12.75 0.75Z" stroke="#CF5C00" stroke-linecap="round" stroke-linejoin="round"/>
<path d="M9.45411 7.81494C9.0984 7.81494 8.81004 8.1033 8.81004 8.45903V10.2705H6.99856C6.64285 10.2705 6.35449 10.5589 6.35449 10.9146V13.0078C6.35449 13.3635 6.64285 13.6519 6.99856 13.6519H8.81004V15.4634C8.81004 15.819 9.0984 16.1075 9.45411 16.1075H11.5474C11.9031 16.1075 12.1914 15.819 12.1914 15.4634V13.6519H14.0029C14.3586 13.6519 14.647 13.3636 14.647 13.0078V10.9146C14.647 10.5589 14.3586 10.2705 14.0029 10.2705H12.1914V8.45903C12.1914 8.1033 11.9031 7.81494 11.5474 7.81494H9.45411Z" stroke="#CF5C00" stroke-linecap="round" stroke-linejoin="round"/>
</svg>
