<svg width="79" height="57" viewBox="0 0 79 57" fill="none" xmlns="http://www.w3.org/2000/svg">
<path fill-rule="evenodd" clip-rule="evenodd" d="M41.5751 7.08994C49.1405 7.79012 56.9051 3.25422 63.8603 5.25069C70.8418 7.25471 73.6618 12.5412 76.3214 17.0638C78.8349 21.3379 79.5108 25.8537 78.6362 30.3768C77.7464 34.9781 74.9677 39.1796 71.2692 43.1905C66.8462 47.9871 63.2411 53.8087 55.0817 55.9211C46.7964 58.0662 36.8326 56.7697 28.8908 54.162C21.548 51.751 18.6268 46.395 13.5478 42.2833C8.7992 38.439 0.417769 35.6423 0.0124125 30.7833C-0.393842 25.9137 9.29154 23.0841 11.557 18.42C14.3754 12.6176 6.34874 3.81888 14.6275 0.694152C23.0282 -2.47664 31.8788 6.19254 41.5751 7.08994Z" fill="#281C1C" fill-opacity="0.84"/>
</svg>
