<svg width="297" height="32" viewBox="0 0 297 32" fill="none" xmlns="http://www.w3.org/2000/svg">
<path d="M5.7543 6.03845C7.21431 6.03845 8.39789 4.85488 8.39789 3.39486C8.39789 1.93484 7.21431 0.751264 5.7543 0.751264C4.29428 0.751264 3.1107 1.93484 3.1107 3.39486C3.1107 4.85488 4.29428 6.03845 5.7543 6.03845Z" stroke="#061428" stroke-width="1.5" stroke-miterlimit="10"/>
<path d="M8.65072 30.8019L8.90265 20.4559C9.87324 20.1062 10.8519 19.2936 10.7495 18.2739L10.1376 10.4008C10.0351 9.37981 9.11103 8.54416 8.08494 8.54416H3.42374C2.39764 8.54416 1.4736 9.37981 1.37112 10.4008L0.758795 18.2739C0.656313 19.2949 1.63458 20.1062 2.60645 20.4559L2.8571 30.8019" stroke="#061428" stroke-width="1.5" stroke-miterlimit="10" stroke-linecap="round" stroke-linejoin="round"/>
<path d="M287.228 6.03845C288.688 6.03845 289.871 4.85488 289.871 3.39486C289.871 1.93484 288.688 0.751264 287.228 0.751264C285.768 0.751264 284.584 1.93484 284.584 3.39486C284.584 4.85488 285.768 6.03845 287.228 6.03845Z" stroke="#061428" stroke-width="1.5" stroke-miterlimit="10"/>
<path d="M292.453 30.8018L292.907 20.5584C294.656 20.2122 296.42 19.4076 296.235 18.3981L295.132 10.603C294.948 9.59211 293.283 8.76474 291.434 8.76474H283.034C281.185 8.76474 279.52 9.59211 279.335 10.603L278.232 18.3981C278.047 19.4089 279.81 20.2122 281.561 20.5584L282.013 30.8018" stroke="#061428" stroke-width="1.5" stroke-miterlimit="10" stroke-linecap="round" stroke-linejoin="round"/>
</svg>
